<?xml version="1.0" encoding="UTF-8"?>
<svg id="Layer_2" data-name="Layer 2" xmlns="http://www.w3.org/2000/svg" viewBox="0 0 14.82 14.59">
  <defs>
    <style>
      .cls-1 {
        fill: #cf604c;
      }
    </style>
  </defs>
  <g id="Layer_1-2" data-name="Layer 1">
    <path class="cls-1" d="M14.8,4.38c.02-1.39-.27-2.98-1.31-3.78h0C12.94.2,12.32.03,11.69,0c-.1,0-.2,0-.31,0h0c-.3,0-.71,0-1.14,0-.01,0-.03,0-.04,0-.59,0-1.2,0-1.6,0h0s-.05,0-.07,0c-.03.07-.04.5-.05,1.16-.03,1.9-.01,5.73,0,8.8,0,2.33.02,4.23,0,4.54,0,0,0,0,0,0,0,0,0,.01,0,.02.01.06.16.05.23.05,1.15-.03,2.58.06,3.41-.04,1.34-.14,2.2-1.16,2.53-2.55,0-.02,0-.04.01-.06.04-.16.06-.33.09-.5,0,0,0,0,0,0,.03-.24.05-.49.05-.74.02-2.1.07-4.21.02-6.31ZM12.72,10.6c0,.28-.01.57-.07.84-.1.64-.49.91-.94,1.02-.07.02-.14.03-.21.04,0,0,0,0,0,0-.2.03-.41.03-.61.02,0,0,0,0-.01,0-.02,0-.04,0-.05,0-.06,0-.11,0-.17,0,0,0,0,0,0,0-.03,0-.06,0-.09-.02-.01,0-.02-.02-.02-.04,0-.03,0-.07,0-.11,0-.03,0-.05,0-.08,0,0,0,0,0,0,0-.02,0-.05,0-.07,0-.58,0-1.89,0-3.38,0-2.15,0-4.68,0-5.95,0-.4,0-.68,0-.77,0-.01.02-.02.06-.02h0s.02,0,.04,0c.19,0,.42,0,.62,0,.1,0,.2,0,.29,0h0c.66.07,1.08.48,1.16,1.4h0s0,.01,0,.02c.15,2.35-.01,4.74.01,7.1Z"/>
    <path class="cls-1" d="M2.07.03v5.91c.39,0,.78,0,1.17,0,.34,0,.69,0,1.03,0V.01h2.02s.04.01.05.02v14.55s-2.04,0-2.04,0c0,0-.04,0-.03-.03,0-1.67,0-3.34,0-5.02,0-.47,0-.95,0-1.42h-2.2v6.46H.03s-.04,0-.03-.03V.01s2.02,0,2.02,0c.02,0,.04.01.05.02Z"/>
  </g>
</svg>